<svg version="1.1" id="Layer_1" xmlns="http://www.w3.org/2000/svg" xmlns:xlink="http://www.w3.org/1999/xlink" x="0px" y="0px"
	 width="100%" viewBox="0 0 1024 1024" enable-background="new 0 0 1024 1024" xml:space="preserve">
<path fill="#000000" opacity="1.000000" stroke="none" 
	d="
M642.540283,468.283386 
	C645.740601,444.589233 630.966675,426.761566 604.842712,426.457977 
	C586.526489,426.245087 568.183167,427.287201 549.886841,426.694122 
	C524.891724,425.883942 499.924500,427.270538 474.932587,426.635315 
	C452.304565,426.060181 429.647705,426.681915 407.003723,426.649780 
	C394.018707,426.631378 381.078827,426.884796 369.557343,418.871887 
	C353.318451,407.578094 345.525604,386.479919 351.167572,367.282166 
	C356.773804,348.205994 374.850403,334.673950 394.934113,334.666504 
	C465.926392,334.640076 536.918640,334.664734 607.910950,334.649384 
	C624.175171,334.645874 638.231812,340.185669 649.944458,351.439575 
	C672.528259,373.138824 695.036743,394.916504 717.570984,416.667328 
	C721.277466,420.244995 725.239746,423.508789 728.570923,427.531006 
	C748.928833,452.111786 740.344604,488.911163 711.115784,501.658447 
	C704.745117,504.436829 697.945312,505.060852 691.090637,505.251587 
	C674.170288,505.722443 660.151611,512.072510 649.408813,525.418701 
	C636.926514,540.925964 637.603333,565.491577 650.921387,580.310181 
	C662.097595,592.745483 675.816895,598.766357 692.612000,597.953735 
	C706.796204,597.267395 719.624207,600.891663 730.374084,610.674316 
	C743.541992,622.657410 748.289062,644.096985 741.582764,661.844849 
	C735.221680,678.679138 717.634583,690.648071 700.008972,691.500549 
	C670.900696,692.908508 649.042053,669.951782 648.510986,642.720276 
	C648.023560,617.726074 627.627869,598.105835 602.807617,597.404480 
	C578.043030,596.704712 557.131470,615.277039 555.112549,640.458008 
	C554.108459,652.982483 552.105225,664.737915 543.620667,674.775879 
	C531.360168,689.281250 509.224335,695.457581 490.890503,688.912231 
	C471.713959,682.065979 460.313965,665.214478 459.486053,645.172546 
	C458.600677,623.739319 475.276611,599.799316 504.234528,598.110291 
	C524.363892,596.936218 543.909851,579.919373 543.599365,553.997986 
	C543.389160,536.447693 549.828674,522.307556 564.308655,511.985779 
	C573.826721,505.201050 584.632080,502.959900 595.947998,502.967346 
	C609.336182,502.976166 621.244019,499.691498 630.924988,489.894745 
	C636.842896,483.905975 640.690613,476.902954 642.540283,468.283386 
z"/>
<path fill="#000000" opacity="1.000000" stroke="none" 
	d="
M427.898926,610.898804 
	C405.734863,633.037964 383.841614,654.947876 361.898529,676.807678 
	C346.192291,692.454224 326.146790,696.093567 306.515167,686.158264 
	C291.021576,678.317200 282.970978,665.079956 281.689240,647.814453 
	C280.542480,632.367310 286.135162,619.737427 297.177094,608.882324 
	C338.973328,567.793152 380.535187,526.465576 422.184784,485.227234 
	C426.799347,480.658234 431.279907,475.943817 436.052002,471.545715 
	C457.642120,451.647858 489.867096,454.214294 506.831635,477.093933 
	C520.999084,496.201141 517.473572,522.839661 498.899414,540.895447 
	C475.153107,563.979126 451.717773,587.382507 427.898926,610.898804 
z"/>
</svg>